<svg width="116" height="32" viewBox="0 0 116 32" fill="none" xmlns="http://www.w3.org/2000/svg">
<path d="M1.48828 25V12.2617H4.72266V13.668C5.19922 13.082 5.73047 12.6406 6.31641 12.3438C6.90234 12.0469 7.55078 11.8984 8.26172 11.8984C9.06641 11.8984 9.75391 12.0508 10.3242 12.3555C10.8945 12.6523 11.3906 13.125 11.8125 13.7734C12.2578 13.1484 12.7852 12.6797 13.3945 12.3672C14.0039 12.0547 14.6836 11.8984 15.4336 11.8984C16.7148 11.8984 17.7305 12.2734 18.4805 13.0234C19.2305 13.7734 19.6055 14.7969 19.6055 16.0938V25H16.2422V16.7969C16.2422 16.1797 16.0742 15.7031 15.7383 15.3672C15.4102 15.0234 14.9492 14.8516 14.3555 14.8516C13.6914 14.8516 13.1641 15.0703 12.7734 15.5078C12.3828 15.9375 12.1875 16.5273 12.1875 17.2773V25H8.85938V16.8203C8.85938 16.1953 8.69531 15.7109 8.36719 15.3672C8.04688 15.0234 7.59375 14.8516 7.00781 14.8516C6.34375 14.8516 5.81641 15.0703 5.42578 15.5078C5.04297 15.9453 4.85156 16.543 4.85156 17.3008V25H1.48828ZM25.3477 18.6133C25.3477 19.8789 25.6055 20.8555 26.1211 21.543C26.6445 22.2305 27.3867 22.5742 28.3477 22.5742C29.293 22.5742 30.0234 22.2305 30.5391 21.543C31.0625 20.8555 31.3242 19.8789 31.3242 18.6133C31.3242 17.3555 31.0664 16.3867 30.5508 15.707C30.0352 15.0195 29.3008 14.6758 28.3477 14.6758C27.3867 14.6758 26.6445 15.0195 26.1211 15.707C25.6055 16.3867 25.3477 17.3555 25.3477 18.6133ZM21.8906 18.6133C21.8906 16.4961 22.4648 14.832 23.6133 13.6211C24.7617 12.4102 26.3398 11.8047 28.3477 11.8047C30.3477 11.8047 31.9219 12.4102 33.0703 13.6211C34.2266 14.832 34.8047 16.4961 34.8047 18.6133C34.8047 20.7383 34.2266 22.4062 33.0703 23.6172C31.9219 24.8281 30.3477 25.4336 28.3477 25.4336C26.3398 25.4336 24.7617 24.8281 23.6133 23.6172C22.4648 22.4062 21.8906 20.7383 21.8906 18.6133Z" fill="url(#paint0_linear_10_28)"/>
<path d="M37.4883 25V12.2617H40.7227V13.668C41.1992 13.082 41.7305 12.6406 42.3164 12.3438C42.9023 12.0469 43.5508 11.8984 44.2617 11.8984C45.0664 11.8984 45.7539 12.0508 46.3242 12.3555C46.8945 12.6523 47.3906 13.125 47.8125 13.7734C48.2578 13.1484 48.7852 12.6797 49.3945 12.3672C50.0039 12.0547 50.6836 11.8984 51.4336 11.8984C52.7148 11.8984 53.7305 12.2734 54.4805 13.0234C55.2305 13.7734 55.6055 14.7969 55.6055 16.0938V25H52.2422V16.7969C52.2422 16.1797 52.0742 15.7031 51.7383 15.3672C51.4102 15.0234 50.9492 14.8516 50.3555 14.8516C49.6914 14.8516 49.1641 15.0703 48.7734 15.5078C48.3828 15.9375 48.1875 16.5273 48.1875 17.2773V25H44.8594V16.8203C44.8594 16.1953 44.6953 15.7109 44.3672 15.3672C44.0469 15.0234 43.5938 14.8516 43.0078 14.8516C42.3438 14.8516 41.8164 15.0703 41.4258 15.5078C41.043 15.9453 40.8516 16.543 40.8516 17.3008V25H37.4883ZM61.3477 18.6133C61.3477 19.8789 61.6055 20.8555 62.1211 21.543C62.6445 22.2305 63.3867 22.5742 64.3477 22.5742C65.293 22.5742 66.0234 22.2305 66.5391 21.543C67.0625 20.8555 67.3242 19.8789 67.3242 18.6133C67.3242 17.3555 67.0664 16.3867 66.5508 15.707C66.0352 15.0195 65.3008 14.6758 64.3477 14.6758C63.3867 14.6758 62.6445 15.0195 62.1211 15.707C61.6055 16.3867 61.3477 17.3555 61.3477 18.6133ZM57.8906 18.6133C57.8906 16.4961 58.4648 14.832 59.6133 13.6211C60.7617 12.4102 62.3398 11.8047 64.3477 11.8047C66.3477 11.8047 67.9219 12.4102 69.0703 13.6211C70.2266 14.832 70.8047 16.4961 70.8047 18.6133C70.8047 20.7383 70.2266 22.4062 69.0703 23.6172C67.9219 24.8281 66.3477 25.4336 64.3477 25.4336C62.3398 25.4336 60.7617 24.8281 59.6133 23.6172C58.4648 22.4062 57.8906 20.7383 57.8906 18.6133ZM73.1367 25V12.2617H76.4766V13.7734C76.9531 13.1562 77.5156 12.6953 78.1641 12.3906C78.8125 12.0781 79.5352 11.9219 80.332 11.9219C81.7383 11.9219 82.7891 12.2891 83.4844 13.0234C84.1875 13.75 84.5391 14.8477 84.5391 16.3164V25H81.1289V17.3008C81.1289 16.3867 80.9727 15.7344 80.6602 15.3438C80.3555 14.9531 79.8555 14.7578 79.1602 14.7578C78.3555 14.7578 77.7188 15 77.25 15.4844C76.7812 15.9609 76.5469 16.6133 76.5469 17.4414V25H73.1367Z" fill="url(#paint1_linear_10_28)"/>
<path d="M99.1953 7.73828V25H95.9609V23.2773C95.4688 24.0195 94.9141 24.5664 94.2969 24.918C93.6875 25.2617 92.9688 25.4336 92.1406 25.4336C90.5703 25.4336 89.2969 24.8125 88.3203 23.5703C87.3516 22.3281 86.8672 20.6992 86.8672 18.6836C86.8672 16.6523 87.3516 15.0039 88.3203 13.7383C89.2969 12.4648 90.5547 11.8281 92.0938 11.8281C92.9141 11.8281 93.6445 12 94.2852 12.3438C94.9336 12.6875 95.4688 13.1875 95.8906 13.8438V7.73828H99.1953ZM90.2773 18.543C90.2773 19.832 90.5195 20.8164 91.0039 21.4961C91.4883 22.168 92.1875 22.5039 93.1016 22.5039C94.0078 22.5039 94.6992 22.168 95.1758 21.4961C95.6523 20.8242 95.8906 19.8398 95.8906 18.543C95.8906 17.3398 95.6406 16.4141 95.1406 15.7656C94.6406 15.1094 93.9375 14.7812 93.0312 14.7812C92.1797 14.7812 91.5078 15.1172 91.0156 15.7891C90.5234 16.4531 90.2773 17.3711 90.2773 18.543ZM105.066 18.6133C105.066 19.8789 105.324 20.8555 105.84 21.543C106.363 22.2305 107.105 22.5742 108.066 22.5742C109.012 22.5742 109.742 22.2305 110.258 21.543C110.781 20.8555 111.043 19.8789 111.043 18.6133C111.043 17.3555 110.785 16.3867 110.27 15.707C109.754 15.0195 109.02 14.6758 108.066 14.6758C107.105 14.6758 106.363 15.0195 105.84 15.707C105.324 16.3867 105.066 17.3555 105.066 18.6133ZM101.609 18.6133C101.609 16.4961 102.184 14.832 103.332 13.6211C104.48 12.4102 106.059 11.8047 108.066 11.8047C110.066 11.8047 111.641 12.4102 112.789 13.6211C113.945 14.832 114.523 16.4961 114.523 18.6133C114.523 20.7383 113.945 22.4062 112.789 23.6172C111.641 24.8281 110.066 25.4336 108.066 25.4336C106.059 25.4336 104.48 24.8281 103.332 23.6172C102.184 22.4062 101.609 20.7383 101.609 18.6133Z" fill="url(#paint2_linear_10_28)"/>
<defs>
<linearGradient id="paint0_linear_10_28" x1="18" y1="13" x2="18" y2="36.5" gradientUnits="userSpaceOnUse">
<stop stop-color="#01CAEF"/>
<stop offset="1" stop-color="#0B3156"/>
</linearGradient>
<linearGradient id="paint1_linear_10_28" x1="61" y1="13" x2="61" y2="42.5" gradientUnits="userSpaceOnUse">
<stop stop-color="#FF45B3"/>
<stop offset="0.810974" stop-color="#760434"/>
</linearGradient>
<linearGradient id="paint2_linear_10_28" x1="101" y1="13" x2="101" y2="42.5" gradientUnits="userSpaceOnUse">
<stop stop-color="#FFAD03"/>
<stop offset="0.810974" stop-color="#C66D03"/>
</linearGradient>
</defs>
</svg>
